mtllib 25_SciFi_Props.mtl
g SciFi_Prop_25_3

#begin 54 vertices
v 104.067387 36.190984 -82.232577
v 104.491141 36.190984 -82.232577
v 104.491141 36.190984 -82.718548
v 104.067387 36.190984 -82.718548
v 104.491141 36.162681 -82.126953
v 104.491141 36.190984 -82.232577
v 104.067387 36.190984 -82.232577
v 104.067387 36.162681 -82.126953
v 104.067387 36.085360 -82.049631
v 104.491141 36.085360 -82.049631
v 104.067387 35.979735 -82.021329
v 104.491141 35.979735 -82.021329
v 104.067387 34.882422 -82.021329
v 104.491141 34.882422 -82.021329
v 104.491141 35.979735 -82.021329
v 104.067387 35.979735 -82.021329
v 104.067387 34.882422 -82.929797
v 104.491141 34.882422 -82.929797
v 104.491141 34.882422 -82.021329
v 104.067387 34.882422 -82.021329
v 104.067387 35.979735 -82.929797
v 104.491141 35.979735 -82.929797
v 104.491141 34.882422 -82.929797
v 104.067387 34.882422 -82.929797
v 104.067387 34.882422 -82.021329
v 104.067387 34.882422 -82.929797
v 104.067387 35.979735 -82.929797
v 104.067387 36.190984 -82.718548
v 104.067387 36.190984 -82.232577
v 104.067387 35.979735 -82.021329
v 104.067387 36.085360 -82.049631
v 104.067387 36.162681 -82.126953
v 104.067387 36.162681 -82.824172
v 104.067387 36.085360 -82.901494
v 104.067387 35.860236 -82.475563
v 104.491141 36.085360 -82.901494
v 104.491141 35.979735 -82.929797
v 104.067387 35.979735 -82.929797
v 104.067387 36.085360 -82.901494
v 104.067387 36.162681 -82.824172
v 104.491141 36.162681 -82.824172
v 104.067387 36.190984 -82.718548
v 104.491141 36.190984 -82.718548
v 104.491141 34.882422 -82.021329
v 104.491141 34.882422 -82.929797
v 104.491141 35.979735 -82.929797
v 104.491141 36.190984 -82.718548
v 104.491141 36.190984 -82.232577
v 104.491141 35.979735 -82.021329
v 104.491141 36.085360 -82.901494
v 104.491141 36.162681 -82.824172
v 104.491141 36.162681 -82.126953
v 104.491141 36.085360 -82.049631
v 104.491141 35.860236 -82.475563
#end 54 vertices

#begin 100 normals
vn 0.000000 1.000000 0.000000
vn 0.000000 1.000000 0.000000
vn 0.000000 1.000000 0.000000
vn 0.000000 1.000000 0.000000
vn 0.000000 0.866025 0.500000
vn 0.000000 0.965926 0.258820
vn 0.000000 0.965926 0.258820
vn 0.000000 0.866025 0.500000
vn 0.000000 0.866025 0.500000
vn 0.000000 0.500000 0.866025
vn 0.000000 0.500000 0.866025
vn 0.000000 0.866025 0.500000
vn 0.000000 0.500000 0.866025
vn 0.000000 0.258820 0.965926
vn 0.000000 0.258820 0.965926
vn 0.000000 0.500000 0.866025
vn 0.000000 0.000000 1.000000
vn 0.000000 0.000000 1.000000
vn 0.000000 0.000000 1.000000
vn 0.000000 0.000000 1.000000
vn 0.000000 -1.000000 0.000000
vn 0.000000 -1.000000 0.000000
vn 0.000000 -1.000000 0.000000
vn 0.000000 -1.000000 0.000000
vn 0.000000 0.000000 -1.000000
vn 0.000000 0.000000 -1.000000
vn 0.000000 0.000000 -1.000000
vn 0.000000 0.000000 -1.000000
vn -1.000000 0.000000 0.000000
vn -1.000000 0.000000 0.000000
vn -1.000000 0.000000 0.000000
vn -1.000000 0.000000 0.000000
vn -1.000000 0.000000 0.000000
vn -1.000000 0.000000 0.000000
vn -1.000000 0.000000 0.000000
vn -1.000000 0.000000 0.000000
vn -1.000000 0.000000 0.000000
vn -1.000000 0.000000 0.000000
vn -1.000000 0.000000 0.000000
vn -1.000000 0.000000 0.000000
vn -1.000000 0.000000 0.000000
vn -1.000000 0.000000 0.000000
vn -1.000000 0.000000 0.000000
vn -1.000000 0.000000 0.000000
vn -1.000000 0.000000 0.000000
vn -1.000000 0.000000 0.000000
vn -1.000000 0.000000 0.000000
vn -1.000000 0.000000 0.000000
vn -1.000000 0.000000 0.000000
vn -1.000000 0.000000 0.000000
vn -1.000000 0.000000 0.000000
vn -1.000000 0.000000 0.000000
vn -1.000000 0.000000 0.000000
vn -1.000000 0.000000 0.000000
vn -1.000000 0.000000 0.000000
vn -1.000000 0.000000 0.000000
vn -1.000000 0.000000 0.000000
vn -1.000000 0.000000 0.000000
vn 0.000000 0.500000 -0.866025
vn 0.000000 0.258820 -0.965926
vn 0.000000 0.258820 -0.965926
vn 0.000000 0.500000 -0.866025
vn 0.000000 0.500000 -0.866025
vn 0.000000 0.866025 -0.500000
vn 0.000000 0.866025 -0.500000
vn 0.000000 0.500000 -0.866025
vn 0.000000 0.866025 -0.500000
vn 0.000000 0.965926 -0.258820
vn 0.000000 0.965926 -0.258820
vn 0.000000 0.866025 -0.500000
vn 1.000000 0.000000 0.000000
vn 1.000000 0.000000 0.000000
vn 1.000000 0.000000 0.000000
vn 1.000000 0.000000 0.000000
vn 1.000000 0.000000 0.000000
vn 1.000000 0.000000 0.000000
vn 1.000000 0.000000 0.000000
vn 1.000000 0.000000 0.000000
vn 1.000000 0.000000 0.000000
vn 1.000000 0.000000 0.000000
vn 1.000000 0.000000 0.000000
vn 1.000000 0.000000 0.000000
vn 1.000000 0.000000 0.000000
vn 1.000000 0.000000 0.000000
vn 1.000000 0.000000 0.000000
vn 1.000000 0.000000 0.000000
vn 1.000000 0.000000 0.000000
vn 1.000000 0.000000 0.000000
vn 1.000000 0.000000 0.000000
vn 1.000000 0.000000 0.000000
vn 1.000000 0.000000 0.000000
vn 1.000000 0.000000 0.000000
vn 1.000000 0.000000 0.000000
vn 1.000000 0.000000 0.000000
vn 1.000000 0.000000 0.000000
vn 1.000000 0.000000 0.000000
vn 1.000000 0.000000 0.000000
vn 1.000000 0.000000 0.000000
vn 1.000000 0.000000 0.000000
vn 1.000000 0.000000 0.000000
#end 100 vertex normals

#begin 30 faces
usemtl scene_material1
f 1//1 2//2 3//3 4//4 
usemtl scene_material1
f 5//5 6//6 7//7 8//8 
usemtl scene_material1
f 8//9 9//10 10//11 5//12 
usemtl scene_material1
f 9//13 11//14 12//15 10//16 
usemtl scene_material1
f 13//17 14//18 15//19 16//20 
usemtl scene_material1
f 17//21 18//22 19//23 20//24 
usemtl scene_material1
f 21//25 22//26 23//27 24//28 
usemtl scene_material1
f 30//29 31//30 35//31 
usemtl scene_material1
f 26//32 25//33 35//34 
usemtl scene_material1
f 27//35 26//36 35//37 
usemtl scene_material1
f 34//38 27//39 35//40 
usemtl scene_material1
f 33//41 34//42 35//43 
usemtl scene_material1
f 28//44 33//45 35//46 
usemtl scene_material1
f 29//47 28//48 35//49 
usemtl scene_material1
f 32//50 29//51 35//52 
usemtl scene_material1
f 31//53 32//54 35//55 
usemtl scene_material1
f 25//56 30//57 35//58 
usemtl scene_material1
f 36//59 37//60 38//61 39//62 
usemtl scene_material1
f 39//63 40//64 41//65 36//66 
usemtl scene_material1
f 40//67 42//68 43//69 41//70 
usemtl scene_material1
f 44//71 45//72 54//73 
usemtl scene_material1
f 53//74 49//75 54//76 
usemtl scene_material1
f 52//77 53//78 54//79 
usemtl scene_material1
f 48//80 52//81 54//82 
usemtl scene_material1
f 47//83 48//84 54//85 
usemtl scene_material1
f 51//86 47//87 54//88 
usemtl scene_material1
f 50//89 51//90 54//91 
usemtl scene_material1
f 46//92 50//93 54//94 
usemtl scene_material1
f 45//95 46//96 54//97 
usemtl scene_material1
f 49//98 44//99 54//100 
#end 30 faces

# Hierarchy (from self to top father)
